<?xml version="1.0" encoding="UTF-8" standalone="no"?>
<!DOCTYPE svg PUBLIC "-//W3C//DTD SVG 1.1//EN" "http://www.w3.org/Graphics/SVG/1.1/DTD/svg11.dtd">
<svg width="100%" height="100%" viewBox="0 0 281 417" version="1.1" xmlns="http://www.w3.org/2000/svg" xmlns:xlink="http://www.w3.org/1999/xlink" xml:space="preserve" xmlns:serif="http://www.serif.com/" style="fill-rule:evenodd;clip-rule:evenodd;stroke-linejoin:round;stroke-miterlimit:2;">
    <g transform="matrix(1,0,0,1,-172.653,-121.819)">
        <g id="Layer_x0020_1">
            <path d="M340.776,397.584C340.776,411.48 326.592,422.712 309.024,422.712C291.528,422.712 277.272,411.408 277.272,397.584C277.272,393.264 278.64,389.232 281.016,385.704C282.672,384.48 284.328,383.4 286.056,382.392C291.024,380.016 295.848,378.216 301.752,377.064C304.128,376.632 307.944,375.912 312.624,375.696C317.304,375.84 321.12,376.56 323.496,377.064C325.8,377.496 327.96,378.072 330.048,378.72C336.6,383.328 340.704,390.024 340.704,397.512L340.776,397.584Z" style="fill:rgb(180,52,73);"/>
            <path d="M231.84,446.256C231.624,446.472 227.88,449.64 227.304,449.064C226.512,448.344 233.136,442.656 236.592,432.72C237.672,429.552 237.888,427.536 238.104,425.664C231.48,432.36 227.736,435.96 224.784,438.408C225.36,444.384 226.8,452.736 230.328,461.448C231.912,458.136 233.496,454.32 235.368,449.568C238.536,441.792 239.4,438.048 238.968,437.832C238.464,437.616 236.664,442.008 231.84,446.112L231.84,446.256Z" style="fill:rgb(84,47,46);"/>
            <path d="M377.784,437.904C377.352,438.12 378.216,441.864 381.384,449.64C382.536,452.448 383.544,454.968 384.552,457.272C385.992,454.752 387.432,452.016 388.656,448.992C387.36,448.416 385.056,446.4 384.912,446.256C380.088,442.08 378.288,437.76 377.784,437.976L377.784,437.904Z" style="fill:rgb(84,47,46);"/>
            <path d="M378.864,417.24C377.424,415.8 376.056,414.432 374.76,413.136C375.624,414.72 376.416,416.304 376.992,417.744C379.584,424.296 377.784,425.736 380.232,432.648C382.968,440.496 387.72,445.68 389.16,447.84C391.104,442.944 392.616,437.4 393.048,431.352C389.664,427.968 385.2,423.504 378.864,417.168L378.864,417.24Z" style="fill:rgb(84,47,46);"/>
            <path d="M340.776,397.584C340.776,411.48 326.592,422.712 309.024,422.712C291.528,422.712 277.272,411.408 277.272,397.584C277.272,393.264 278.64,389.232 281.016,385.704C282.672,384.48 284.328,383.4 286.056,382.392C291.024,380.016 295.848,378.216 301.752,377.064C304.128,376.632 307.944,375.912 312.624,375.696C317.304,375.84 321.12,376.56 323.496,377.064C325.8,377.496 327.96,378.072 330.048,378.72C336.6,383.328 340.704,390.024 340.704,397.512L340.776,397.584Z" style="fill:rgb(239,158,112);"/>
            <path d="M275.04,509.976C274.896,511.2 274.68,512.352 274.464,513.432C269.136,518.688 261.072,522.072 252.072,522.072C236.088,522.072 223.128,511.56 223.128,498.6C223.128,495.072 224.064,491.76 225.792,488.736C228.168,488.088 232.992,485.352 236.808,481.248C238.032,479.952 238.968,478.728 239.616,477.72C239.76,477.576 239.832,477.36 239.976,477.216C240.768,476.928 241.488,476.64 242.352,476.424C242.424,477.36 242.352,478.872 242.064,480.6C241.56,483.624 240.408,487.584 238.464,491.328C235.584,497.016 232.2,499.752 232.848,500.544C233.568,501.48 238.608,499.248 242.64,495.72C245.952,492.84 247.896,489.672 249.12,487.512C250.056,485.856 250.632,484.776 251.064,484.992C251.64,485.208 251.64,486.936 251.352,489.312C251.064,491.688 250.488,494.712 249.912,497.376C247.32,508.608 243.864,515.16 245.088,515.808C245.952,516.312 248.832,513.216 250.2,511.416C253.728,506.952 254.376,502.776 255.312,502.92C256.032,503.064 256.248,505.584 256.248,507.168C256.176,512.064 253.8,515.16 254.304,515.448C254.808,515.808 258.12,513 260.784,508.464C263.592,503.712 264.24,499.248 264.744,497.088C264.96,496.224 265.104,495.72 265.32,495.72C265.608,495.72 265.968,496.512 266.256,497.736C266.688,499.752 266.832,502.92 266.256,506.304C265.32,511.416 263.016,514.44 263.808,515.088C264.528,515.664 267.264,513.792 269.28,511.488C272.592,507.672 273.6,503.208 274.104,500.688C274.32,499.392 274.464,498.672 274.68,498.672C274.896,498.672 275.184,499.608 275.328,501.048C275.544,503.064 275.544,506.232 275.04,509.832L275.04,509.976Z" style="fill:rgb(125,46,47);"/>
            <path d="M403.776,480.456C403.416,481.32 398.016,480.384 393.264,478.224C383.688,473.904 379.296,465.984 378.576,466.56C378.144,467.28 380.88,472.752 384.696,478.224C385.128,478.872 385.56,479.448 385.992,480.024C390.168,485.712 393.048,488.016 392.544,488.664C391.896,489.528 385.128,486.648 380.016,481.176C377.928,478.944 376.776,477 375.984,475.92C375.552,475.344 375.264,475.056 374.976,475.128C374.832,475.2 374.688,475.344 374.616,475.632C373.968,477.576 374.904,484.704 378.288,491.256C381.168,496.944 384.552,499.68 383.904,500.472C383.184,501.408 378.144,499.176 374.112,495.648C368.208,490.536 366.696,484.56 365.616,484.92C364.536,485.28 365.616,491.976 366.84,497.304C369.432,508.536 372.888,515.088 371.664,515.736C370.8,516.24 367.92,513.144 366.552,511.344C363.024,506.88 362.376,502.704 361.44,502.848C360.72,502.992 360.504,505.512 360.504,507.096C360.576,511.992 362.952,515.088 362.448,515.376C361.944,515.736 358.632,512.928 355.968,508.392C352.008,501.624 352.296,495.648 351.432,495.72C350.64,495.792 349.56,500.832 350.496,506.304C351.432,511.416 353.736,514.44 352.944,515.088C352.224,515.664 349.488,513.792 347.472,511.488C342.504,505.8 342.72,498.6 342,498.672C341.496,498.744 340.992,502.488 341.424,507.744C341.496,508.392 341.568,509.112 341.64,509.832C342.792,518.256 345.672,522.792 344.664,523.44C343.584,524.088 339.264,520.128 336.168,515.304C331.848,508.536 331.56,502.776 330.408,502.92C329.184,503.064 328.896,509.832 329.04,513.648C329.112,516.312 329.256,518.976 330.264,522.288C331.2,525.24 332.208,526.752 331.776,527.112C331.128,527.616 327.816,524.88 325.44,522C322.992,519.048 321.768,516.312 321.048,514.584C319.752,511.488 318.672,508.104 317.952,504.936C317.808,505.728 317.664,506.592 317.592,507.672C317.304,511.632 317.664,514.8 317.664,514.8C317.952,517.608 318.528,519.12 318.024,521.64C317.592,523.8 316.584,525.528 316.296,525.456C315.864,525.384 316.656,523.008 315.792,520.056C315.216,518.112 314.136,516.384 313.704,516.456C313.272,516.6 314.28,519.12 314.136,522.936C313.992,527.328 312.408,530.424 311.616,531.936C310.464,534.096 309.096,535.896 308.808,535.68C308.448,535.536 310.032,533.088 309.6,530.064C309.24,527.472 307.656,525.168 306.864,525.312C305.784,525.6 306,531 306.432,534.312C306.72,536.688 307.152,537.984 306.792,538.128L306.72,538.128C306.072,538.128 303.912,534.6 302.616,532.008C301.392,529.704 299.16,524.88 297.36,517.392C297.144,516.456 296.856,514.656 296.424,511.848C296.136,512.712 295.776,513.576 295.416,514.44C294.696,516.096 293.472,518.904 291.024,521.856C288.648,524.736 285.336,527.544 284.688,526.968C284.256,526.608 285.264,525.096 286.2,522.144C287.208,518.832 287.28,516.24 287.424,513.504C287.568,510.408 287.352,505.296 286.632,503.424C286.488,502.992 286.272,502.776 286.056,502.776C285.84,502.776 285.696,502.92 285.48,503.28C284.688,504.792 283.824,509.688 280.296,515.16C277.2,519.984 272.88,524.016 271.8,523.296C270.936,522.72 272.88,519.336 274.248,513.144C274.464,512.064 274.68,510.912 274.824,509.688C275.328,506.088 275.328,502.92 275.112,500.904C274.968,499.392 274.752,498.528 274.464,498.528C274.248,498.528 274.104,499.32 273.888,500.544C273.384,503.064 272.376,507.528 269.064,511.344C267.048,513.648 264.384,515.52 263.592,514.944C262.8,514.368 265.104,511.344 266.04,506.16C266.616,502.776 266.472,499.608 266.04,497.592C265.752,496.368 265.464,495.576 265.104,495.576C264.888,495.576 264.672,496.08 264.528,496.944C264.096,499.104 263.376,503.496 260.568,508.32C257.904,512.856 254.592,515.592 254.088,515.304C253.584,514.944 255.96,511.92 256.032,507.024C256.032,505.44 255.816,502.92 255.096,502.776C254.16,502.632 253.44,506.736 249.984,511.272C248.544,513.072 245.736,516.168 244.872,515.664C243.72,514.944 247.104,508.464 249.696,497.232C250.272,494.568 250.848,491.544 251.136,489.168C251.424,486.792 251.424,484.992 250.848,484.848C250.416,484.704 249.84,485.712 248.904,487.368C247.68,489.528 245.736,492.624 242.424,495.576C238.392,499.104 233.352,501.336 232.632,500.4C231.912,499.608 235.296,496.872 238.248,491.184C240.192,487.44 241.344,483.48 241.848,480.456C242.136,478.728 242.208,477.288 242.136,476.28C241.344,476.496 240.552,476.784 239.76,477.072C239.688,477.216 239.544,477.36 239.4,477.576C238.752,478.584 237.816,479.808 236.592,481.104C232.704,485.208 227.952,487.944 225.576,488.592C224.784,488.808 224.28,488.808 224.136,488.592C223.56,487.872 227.16,485.136 231.984,478.08C233.424,476.064 234.648,473.976 235.656,472.176C237.456,469.08 238.392,466.704 237.96,466.416C237.6,466.128 236.448,467.784 234.288,470.016C231.912,472.536 228.312,475.848 223.2,478.08C218.448,480.24 213.12,481.176 212.688,480.312C212.328,479.52 216.36,478.008 220.536,474.48C224.64,471.024 227.232,467.136 229.968,461.376C231.552,458.064 233.136,454.248 235.008,449.496C238.176,441.72 239.04,437.976 238.608,437.76C238.104,437.544 236.304,441.936 231.48,446.04C231.264,446.256 227.52,449.424 226.944,448.848C226.152,448.128 232.776,442.44 236.232,432.504C237.312,429.336 237.528,427.32 237.744,425.448C240.12,423.072 242.856,420.264 246.096,417.024C249.984,413.064 253.152,409.968 255.672,407.448C264.456,398.664 265.608,397.656 266.976,396.504C272.016,392.256 276.408,388.512 280.728,385.416C278.352,388.944 276.984,392.976 276.984,397.296C276.984,411.192 291.168,422.424 308.736,422.424C326.232,422.424 340.488,411.12 340.488,397.296C340.488,389.808 336.384,383.112 329.832,378.504C333,379.512 335.952,380.736 338.904,382.104C344.952,385.632 350.712,390.528 357.696,396.432C358.848,397.44 359.856,398.304 365.472,403.848C367.704,406.008 370.584,408.96 374.472,412.848C375.336,414.432 376.128,416.016 376.704,417.456C379.296,424.008 377.496,425.448 379.944,432.36C382.68,440.208 387.432,445.392 388.872,447.552C389.232,448.128 389.376,448.488 389.232,448.632C389.088,448.776 388.8,448.704 388.44,448.56C387.144,447.984 384.84,445.968 384.696,445.824C379.872,441.648 378.072,437.328 377.568,437.544C377.136,437.76 378,441.504 381.168,449.28C382.32,452.088 383.328,454.608 384.336,456.912C387.864,465.12 390.6,470.016 395.712,474.264C399.96,477.792 403.92,479.304 403.56,480.096L403.776,480.456Z" style="fill:rgb(217,216,214);"/>
            <path d="M397.008,498.6C397.008,511.56 384.048,522.072 368.064,522.072C356.112,522.072 345.888,516.24 341.496,507.888C340.992,502.632 341.568,498.888 342.072,498.816C342.72,498.744 342.504,505.944 347.544,511.632C349.56,513.936 352.224,515.808 353.016,515.232C353.808,514.656 351.504,511.632 350.568,506.448C349.56,500.976 350.712,495.936 351.504,495.864C352.368,495.792 352.08,501.84 356.04,508.536C358.704,513.072 362.016,515.808 362.52,515.52C363.024,515.16 360.648,512.136 360.576,507.24C360.576,505.656 360.792,503.136 361.512,502.992C362.448,502.848 363.168,506.952 366.624,511.488C368.064,513.288 370.872,516.384 371.736,515.88C372.96,515.16 369.504,508.68 366.912,497.448C365.688,492.12 364.608,485.424 365.688,485.064C366.768,484.704 368.28,490.68 374.184,495.792C378.216,499.32 383.256,501.552 383.976,500.616C384.696,499.824 381.312,497.088 378.36,491.4C374.976,484.776 374.04,477.72 374.688,475.776C374.76,475.488 374.904,475.344 375.048,475.272C375.336,475.2 375.624,475.488 376.056,476.064C376.776,477.144 377.928,479.088 380.088,481.32C385.2,486.792 391.896,489.672 392.616,488.808C393.12,488.16 390.24,485.856 386.064,480.168C392.832,484.488 397.152,491.112 397.152,498.672L397.008,498.6Z" style="fill:rgb(125,46,47);"/>
            <path d="M452.592,441.792C452.376,446.184 441.72,449.496 434.736,450.288C422.424,451.656 412.776,446.256 406.656,442.728C402.336,440.28 399.744,438.12 392.976,431.496L365.688,404.208C360.072,398.664 359.064,397.728 357.912,396.792C350.928,390.888 345.168,385.992 339.12,382.464C336.096,381.024 333.144,379.8 330.048,378.864C327.96,378.216 325.8,377.64 323.496,377.208C321.12,376.776 317.304,376.056 312.624,375.84C307.944,375.984 304.128,376.704 301.752,377.208C295.92,378.36 291.096,380.16 286.056,382.536C284.4,383.544 282.672,384.624 281.016,385.848C276.696,388.944 272.304,392.616 267.264,396.936C265.896,398.088 264.744,399.096 255.96,407.88C253.44,410.4 250.344,413.496 246.384,417.456C243.144,420.696 240.408,423.504 238.032,425.88C231.408,432.576 227.664,436.176 224.712,438.624C222.624,440.352 220.824,441.504 218.592,442.8C212.472,446.328 202.752,451.728 190.512,450.36C183.6,449.568 172.872,446.328 172.656,441.864C172.368,435.816 191.952,436.104 210.168,419.832C212.256,417.96 214.128,416.016 215.784,414.144C219.456,407.88 223.992,399.384 227.664,388.728C233.352,372.384 231.336,367.416 236.736,335.808C239.472,319.68 239.832,321.768 246.744,288.648C257.544,236.592 254.808,240.048 258.84,228.528C270,196.344 288.864,175.536 296.928,166.896C306.792,156.24 321.336,140.904 345.312,130.608C359.136,124.704 370.8,119.664 384.624,122.76C406.008,127.512 417.312,148.248 426.672,165.384C431.568,174.312 442.296,194.688 441.792,222.48C441.576,235.224 441.072,261.864 423.36,272.952C422.496,273.528 409.968,281.088 400.104,275.976C385.632,268.488 388.08,239.616 390.456,239.112C391.464,238.896 391.968,243.792 397.08,248.76C400.464,252.072 407.664,257.256 413.136,255.384C419.616,253.224 420.84,241.92 421.92,231.84C423.432,217.8 425.016,203.256 416.16,188.64C413.424,184.104 406.512,172.656 392.904,168.984C390.24,168.264 381.312,165.888 373.248,169.92C369.576,171.792 361.512,177.264 356.904,207.072C355.104,218.88 352.944,239.688 357.192,271.44C357.84,276.048 360.432,294.768 367.2,318.888C370.872,331.992 374.832,343.296 379.512,355.68C380.376,357.984 381.672,361.512 383.4,365.688C384.84,369.216 386.568,373.104 391.536,383.544C394.92,390.6 396.576,394.128 397.44,395.64C402.84,406.008 409.824,414.936 415.296,419.832C433.44,436.104 453.024,435.888 452.808,441.864L452.592,441.792Z" style="fill:rgb(174,52,55);"/>
        </g>
    </g>
</svg>
